# xmcd
#
# Track frame offsets: 
#        150
#        16122
#        34467
#        48177
#        65737
#        92257
#        115427
#        134880
#        152245
#        164615
#        181712
#        200835
#        219110
#        238397
#        257357
#        275090
#
# Disc length: 3927 seconds
#
# Revision: 1
# Processed by: cddbd v1.5.2PL0 Copyright (c) Steve Scherf et al.
# Submitted via: ExactAudioCopyFreeDBPlugin 1.0
#
DISCID=ec0f5510
DTITLE=Various Artist - 고마워요, 소울 메이트
DYEAR=2007
DGENRE=Pop
TTITLE0=Bic Runga - Blue Blue Heart
TTITLE1=Enzo Enzo - Ni Forte Ni Fragile
TTITLE2=Dido - My Life
TTITLE3=Natalie Imbruglia - I Won'T Be Lost
TTITLE4=Sade - Haunt Me
TTITLE5=Fiona Apple - Across The Universe
TTITLE6=Indigo Girls - Winthrop
TTITLE7=Eliane Elias - Running
TTITLE8=Sandi Thom - Superman
TTITLE9=ATC - Thinking of You
TTITLE10=Lisa Ekdahl - Rivers Of Love
TTITLE11=Be The Voice - Altogether Alone
TTITLE12=Martika - Thy Will Be Done
TTITLE13=Delta Goodrem - Born To Try
TTITLE14=Heather Headley - If It Wasn'T For Your Love
TTITLE15=Annie Lennox - Love Song For A Vampire
EXTD=
EXTT0=
EXTT1=
EXTT2=
EXTT3=
EXTT4=
EXTT5=
EXTT6=
EXTT7=
EXTT8=
EXTT9=
EXTT10=
EXTT11=
EXTT12=
EXTT13=
EXTT14=
EXTT15=
PLAYORDER=
